<?xml version="1.0" standalone="no"?>
<!DOCTYPE svg PUBLIC "-//W3C//DTD SVG 20010904//EN"
 "http://www.w3.org/TR/2001/REC-SVG-20010904/DTD/svg10.dtd">
<svg version="1.0" xmlns="http://www.w3.org/2000/svg"
 width="700.000000pt" height="700.000000pt" viewBox="0 0 700.000000 700.000000"
 preserveAspectRatio="xMidYMid meet">
<metadata>
Created by potrace 1.14, written by Peter Selinger 2001-2017
</metadata>
<g transform="translate(0.000000,700.000000) scale(0.100000,-0.100000)"
fill="#000000" stroke="none">
<path d="M3278 6996 c-1 -2 -41 -6 -88 -10 -87 -7 -105 -9 -225 -27 -68 -10
-98 -15 -140 -24 -11 -2 -31 -6 -45 -9 -14 -2 -63 -14 -110 -26 -47 -12 -95
-24 -107 -26 -39 -7 -261 -84 -367 -126 -878 -349 -1593 -1066 -1946 -1949
-68 -169 -145 -420 -166 -537 -3 -15 -10 -47 -15 -72 -16 -67 -18 -78 -23
-124 -3 -22 -8 -52 -11 -66 -5 -28 -10 -70 -22 -200 -16 -165 -9 -570 12 -714
3 -17 7 -49 10 -71 16 -130 32 -214 71 -370 80 -322 233 -688 394 -948 30 -48
60 -95 65 -105 24 -42 133 -191 208 -285 200 -248 433 -468 692 -653 61 -44
120 -84 130 -91 11 -6 56 -34 100 -61 372 -231 867 -406 1314 -468 25 -3 57
-8 71 -10 163 -25 682 -25 842 1 13 2 46 7 73 10 74 11 87 13 120 19 17 4 46
9 65 12 51 8 213 48 300 74 627 183 1199 545 1630 1029 36 41 70 79 76 85 29
30 185 242 240 326 261 398 432 828 518 1300 13 74 27 164 31 200 4 36 9 81
12 100 8 72 10 518 2 602 -8 87 -18 175 -24 213 -2 11 -6 45 -10 75 -4 30 -9
58 -11 61 -2 4 -6 24 -10 45 -8 53 -70 302 -84 339 -7 17 -14 39 -16 51 -2 11
-22 69 -44 129 -244 657 -654 1207 -1206 1617 -444 329 -996 563 -1524 643
-25 4 -54 9 -65 11 -10 2 -49 6 -85 10 -36 3 -78 8 -95 11 -33 5 -531 13 -537
9z m527 -429 c11 -3 49 -8 85 -12 36 -4 72 -9 80 -10 8 -1 35 -6 60 -10 71
-11 287 -63 380 -92 190 -58 432 -163 604 -262 49 -28 93 -51 97 -51 5 0 9 -4
9 -10 0 -5 5 -10 11 -10 16 0 186 -120 304 -214 112 -90 324 -297 406 -396 30
-36 56 -67 59 -70 16 -14 105 -138 167 -230 89 -134 159 -259 218 -385 25 -55
50 -109 55 -120 19 -42 90 -236 99 -272 5 -21 21 -78 35 -126 28 -99 62 -255
71 -332 4 -27 8 -61 11 -75 19 -118 26 -520 11 -675 -11 -112 -27 -224 -37
-265 -5 -19 -11 -51 -14 -70 -33 -209 -164 -574 -294 -820 -81 -153 -208 -350
-294 -455 -262 -322 -511 -542 -836 -742 -309 -188 -718 -342 -1062 -397 -19
-3 -46 -8 -60 -10 -201 -38 -624 -43 -870 -10 -397 51 -818 196 -1166 402
-275 162 -576 415 -774 651 -25 29 -53 63 -64 75 -37 43 -184 253 -228 327
-117 194 -220 417 -293 633 -35 105 -97 349 -110 431 -35 234 -40 298 -40 535
0 229 7 321 35 493 82 490 255 905 549 1316 41 57 81 112 90 121 9 9 48 54 88
101 178 210 430 423 703 595 82 52 293 161 402 209 84 36 316 118 368 130 8 2
51 12 95 24 44 11 91 22 105 24 14 3 36 8 50 11 14 3 39 7 55 10 17 2 46 6 65
10 66 11 105 16 190 22 47 3 87 8 89 10 5 5 472 -4 496 -9z"/>
<path d="M3400 5907 c-168 -47 -271 -219 -238 -398 18 -100 90 -199 173 -239
24 -11 45 -26 47 -33 2 -7 4 -111 3 -232 l0 -220 -40 2 c-54 4 -157 56 -206
105 -64 64 -91 130 -104 252 -20 181 -132 297 -302 312 -82 7 -138 -11 -229
-74 -63 -44 -73 -52 -202 -170 -271 -247 -398 -342 -577 -431 -216 -108 -336
-136 -586 -136 l-176 0 9 -38 c19 -86 74 -158 146 -193 38 -18 129 -24 168
-11 18 6 24 2 35 -25 47 -113 178 -171 292 -127 42 17 47 17 47 3 0 -24 37
-70 75 -94 21 -13 59 -23 98 -27 56 -5 71 -2 117 21 29 15 53 25 54 24 26 -47
63 -79 106 -92 72 -21 120 -11 192 40 l48 34 43 -31 c34 -24 58 -32 108 -36
52 -5 69 -11 94 -35 70 -67 288 -190 465 -263 115 -47 140 -59 139 -64 0 -3
-53 -32 -117 -63 -274 -134 -385 -246 -386 -392 -1 -151 130 -285 418 -429 74
-37 115 -63 105 -66 -64 -25 -215 -153 -261 -219 -36 -53 -42 -118 -15 -174
23 -48 109 -127 211 -193 47 -30 86 -57 86 -60 0 -2 -14 -12 -32 -21 -49 -26
-129 -105 -149 -149 -22 -48 -24 -104 -5 -150 20 -47 85 -114 145 -150 28 -16
51 -34 51 -39 0 -4 -12 -22 -27 -40 -44 -53 -71 -120 -66 -172 5 -60 24 -96
81 -147 116 -105 142 -134 142 -161 0 -29 -7 -28 125 -28 120 0 115 -1 115 24
0 29 36 80 76 107 55 38 116 104 134 144 32 71 7 171 -62 244 l-30 31 39 20
c59 30 139 107 162 155 24 50 27 104 7 151 -19 46 -80 112 -133 143 -23 13
-43 28 -43 32 0 3 35 29 78 58 90 60 183 146 207 194 27 52 24 117 -8 172 -30
51 -127 137 -219 194 -57 35 -72 53 -44 53 20 0 217 103 286 150 158 107 235
214 234 325 -1 150 -114 263 -407 406 -90 44 -97 49 -76 58 221 85 498 236
584 319 25 24 42 30 94 35 50 4 74 12 109 37 44 31 52 31 82 0 17 -18 65 -41
100 -49 68 -15 136 8 186 63 40 43 42 45 58 27 25 -27 98 -45 157 -38 66 8
122 41 148 87 21 38 22 38 51 24 52 -26 129 -26 184 1 56 27 88 60 113 116 9
21 21 35 26 32 5 -3 38 -7 73 -9 129 -6 221 83 248 238 l5 27 -127 -6 c-113
-5 -194 1 -331 23 -69 11 -235 74 -329 125 -156 83 -282 177 -477 353 -224
203 -260 232 -340 277 -53 30 -68 33 -135 33 -93 0 -147 -15 -202 -57 -75 -58
-120 -142 -133 -252 -12 -92 -16 -110 -39 -160 -24 -54 -79 -114 -136 -150
-33 -21 -133 -55 -162 -55 -11 0 -13 44 -13 232 l0 231 45 24 c253 134 242
511 -18 625 -59 25 -180 33 -242 15z m-15 -1722 l0 -276 -21 5 c-12 3 -87 35
-166 70 -263 117 -330 156 -264 156 32 0 167 52 204 79 17 12 33 21 36 21 19
0 136 117 178 178 16 23 30 42 31 42 1 0 2 -124 2 -275z m280 210 c56 -72 121
-131 195 -175 61 -37 173 -80 209 -80 9 0 22 -4 30 -9 11 -7 -20 -26 -113 -71
-135 -65 -327 -148 -354 -152 -15 -3 -17 24 -17 274 0 152 2 274 5 270 3 -4
23 -29 45 -57z m199 -942 c44 -24 83 -43 88 -43 4 0 8 -3 8 -7 0 -5 20 -21 44
-37 52 -35 77 -73 66 -101 -19 -49 -142 -135 -310 -216 -58 -28 -113 -55 -122
-60 -10 -5 -19 -9 -20 -9 -3 0 -2 568 1 582 1 9 140 -53 245 -109z m-479 -187
c0 -157 -3 -287 -6 -290 -8 -9 -235 106 -319 162 -76 50 -122 93 -133 124 -8
24 32 70 102 118 63 42 317 169 341 170 13 0 15 -37 15 -284z m393 -757 c28
-22 52 -42 52 -45 0 -14 -202 -156 -210 -148 -2 3 -5 72 -5 153 l0 149 55 -35
c30 -19 79 -53 108 -74z m-393 -43 c0 -80 -3 -147 -5 -149 -5 -5 -136 81 -185
120 -23 19 -26 25 -15 38 15 18 187 135 198 135 4 0 7 -65 7 -144z m290 -538
c19 -13 35 -28 35 -33 0 -12 -89 -68 -91 -57 -1 4 -2 31 -3 60 -3 60 5 64 59
30z m-290 -54 c0 -31 -4 -54 -10 -54 -5 0 -29 13 -52 28 -38 25 -41 29 -25 40
48 34 77 51 82 46 2 -3 5 -30 5 -60z"/>
</g>
</svg>
